; OM File Header - Saved 2022/08/02 12:49:18
; (6.2 :patc (om-make-point 520.0 66) (om-make-point 744 319) (om-make-point 736 532) "" 183 0 "2022/07/20 7:09:59" "2022/07/20 12:15:08")
; End File Header
(in-package :om)(load-lib-for (quote nil))(setf *om-current-persistent* (om-load-patch1 "Condicional" (quote ((let ((box (om-load-boxcall (quote lispfun) "MAPCAR 2" (quote mapcar) (quote ((om-load-inputfun (quote input-funbox) "FUNCTION" "FUNCTION" nil) (om-load-inputfun (quote input-funbox) "LIST" "LIST" nil))) (om-make-point 320 252) nil nil nil nil 1))) (when (fboundp (quote set-active)) (set-active box nil)) box) (let ((box (om-load-boxcall (quote lispfun) "MAPCAR" (quote mapcar) (quote ((om-load-inputfun (quote input-funbox) "FUNCTION" "FUNCTION" nil) (om-load-inputfun (quote input-funbox) "LIST" "LIST" nil))) (om-make-point 332 162) nil nil nil nil 1))) (when (fboundp (quote set-active)) (set-active box nil)) box) (let ((box (om-load-boxcall (quote bastype) "aux 7" (quote t) (quote nil) (om-make-point 210 67) (om-make-point 28 32) 0 "0" nil))) (when (fboundp (quote set-active)) (set-active box nil)) box) (let ((box (om-load-boxcall (quote genfun) "OM= 3" (quote om=) (quote ((om-load-inputfun (quote input-funbox) "a number" "A" 0) (om-load-inputfun (quote input-funbox) "a number" "B" 0))) (om-make-point 205 105) (om-make-point 50 35) nil "l" nil 1))) (when (fboundp (quote set-active)) (set-active box nil)) box) (let ((box (om-load-boxcall (quote bastype) "list" (quote list) (quote nil) (om-make-point 292 67) (om-make-point 157 32) (list 1 0 1 2 3 4 5 6 7 8 9) "(1 0 1 2 3 4 5 6 7 8 9)" nil))) (when (fboundp (quote set-active)) (set-active box nil)) box))) (quote ((1 0 0 1 nil 0) (3 0 1 0 nil 0) (4 0 1 1 nil 0) (2 0 3 0 nil 0))) nil 6.2))
